<svg xmlns="http://www.w3.org/2000/svg" xmlns:xlink="http://www.w3.org/1999/xlink" version="1.1" width="50" height="50" viewBox="0 0 30 30" xml:space="preserve">
<path style="stroke: none; stroke-width: 0; stroke-dasharray: none; stroke-linecap: butt; stroke-dashoffset: 0; stroke-linejoin: miter; stroke-miterlimit: 4; fill: #000000; fill-rule: evenodd; opacity: 1;"  d="M 7 4 H 25 a 1 1 0 0 1 1 1 V 23 l -5 5 H 11 L 6 23 V 5 A 1 1 0 0 1 7 4 Z M 24 6 V 9 H 8 V 6 H 24 Z M 9 13 V 11 H 8 v 2 H 9 Z m 0 3 V 14 H 8 v 2 H 9 Z m 0 3 V 17 H 8 v 2 H 9 Z m 13 5 V 23 h 1 v 1 H 22 Z m 2 -11 V 11 H 23 v 2 h 1 Z m 0 3 V 14 H 23 v 2 h 1 Z m 0 3 V 17 H 23 v 2 h 1 Z M 9 22 V 20 H 8 v 2 H 9 Z m 15 0 V 20 H 23 v 2 h 1 Z m -3 3 V 24 h 1 v 1 H 21 Z M 10 24 V 23 H 9 v 1 h 1 Z m 1 1 V 24 H 10 v 1 h 1 Z m 1 1 h 2 V 25 H 12 v 1 Z m 3 0 h 2 V 25 H 15 v 1 Z m 3 0 h 2 V 25 H 18 v 1 Z" stroke-linecap="round" />
</svg>