<svg xmlns="http://www.w3.org/2000/svg" xmlns:xlink="http://www.w3.org/1999/xlink" version="1.1" width="500" height="500" viewBox="0 0 500 500" xml:space="preserve">
<g transform="matrix(0.84 0 0 0.8399999999999999 250.35739999999998 263.24633811712226)"  >
<polygon style="stroke: none; stroke-width: 1; stroke-dasharray: none; stroke-linecap: butt; stroke-dashoffset: 0; stroke-linejoin: miter; stroke-miterlimit: 4; fill: rgb(0,0,0); fill-rule: nonzero; opacity: 1;"  points="213.73499999999999,70.85499999999999 -213.735,70.85499999999999 -213.735,-70.85500000000002 -55.745000000000005,-70.85500000000002 -55.745000000000005,-65.85500000000002 -208.735,-65.85500000000002 -208.735,65.85499999999999 208.73499999999999,65.85499999999999 208.73499999999999,-65.85500000000002 55.734999999999985,-65.85500000000002 55.734999999999985,-70.85500000000002 213.73499999999999,-70.85500000000002 " />
</g>
<g transform="matrix(1 0 0 1 250.83 263.9793120271469)" style=""  ><path fill="#000000" opacity="1" d="M-140.98 11.35L-140.98 11.35Q-143.38 11.35-145.43 10.44Q-147.48 9.54-148.98 7.97L-148.98 7.97L-147.24 5.95Q-146.02 7.24-144.37 8.03Q-142.72 8.81-140.94 8.81L-140.94 8.81Q-138.68 8.81-137.43 7.78Q-136.17 6.76-136.17 5.09L-136.17 5.09Q-136.17 4.22-136.47 3.61Q-136.77 3.00-137.27 2.56Q-137.77 2.13-138.47 1.78Q-139.17 1.43-139.97 1.05L-139.97 1.05L-143.24-0.38Q-144.04-0.73-144.87-1.21Q-145.71-1.70-146.37-2.40Q-147.03-3.09-147.45-4.05Q-147.87-5.01-147.87-6.26L-147.87-6.26Q-147.87-7.55-147.33-8.66Q-146.79-9.77-145.83-10.59Q-144.87-11.41-143.57-11.86Q-142.26-12.31-140.70-12.31L-140.70-12.31Q-138.64-12.31-136.90-11.53Q-135.16-10.75-133.95-9.49L-133.95-9.49L-135.51-7.62Q-136.56-8.62-137.83-9.20Q-139.10-9.77-140.70-9.77L-140.70-9.77Q-142.61-9.77-143.78-8.89Q-144.94-8.00-144.94-6.43L-144.94-6.43Q-144.94-5.60-144.61-5.02Q-144.28-4.45-143.72-4.01Q-143.17-3.58-142.51-3.25Q-141.85-2.92-141.15-2.64L-141.15-2.64L-137.91-1.25Q-136.94-0.83-136.07-0.29Q-135.20 0.25-134.57 0.96Q-133.95 1.68-133.58 2.63Q-133.22 3.59-133.22 4.84L-133.22 4.84Q-133.22 6.20-133.76 7.38Q-134.29 8.56-135.30 9.45Q-136.31 10.34-137.74 10.84Q-139.17 11.35-140.98 11.35Z"/><path fill="#000000" opacity="1" d="M-120.69 10.93L-123.58 10.93L-123.58-11.90L-120.69-11.90L-120.69 10.93Z"/><path fill="#000000" opacity="1" d="M-106.53 10.93L-109.28 10.93L-109.28-11.90L-106.28-11.90L-98.04 2.44L-95.57 7.17L-95.43 7.17Q-95.53 5.43-95.65 3.57Q-95.78 1.71-95.78-0.10L-95.78-0.10L-95.78-11.90L-93.03-11.90L-93.03 10.93L-96.02 10.93L-104.30-3.44L-106.77-8.14L-106.91-8.14Q-106.77-6.40-106.65-4.61Q-106.53-2.81-106.53-1.00L-106.53-1.00L-106.53 10.93Z"/><path fill="#000000" opacity="1" d="M-73.51 11.35L-73.51 11.35Q-75.25 11.35-76.76 10.84Q-78.27 10.34-79.37 9.17Q-80.47 8.01-81.09 6.13Q-81.72 4.25-81.72 1.50L-81.72 1.50L-81.72-11.90L-78.83-11.90L-78.83 1.57Q-78.83 3.62-78.41 5.02Q-77.99 6.41-77.28 7.24Q-76.57 8.08-75.59 8.44Q-74.62 8.81-73.51 8.81L-73.51 8.81Q-72.36 8.81-71.38 8.44Q-70.41 8.08-69.68 7.24Q-68.95 6.41-68.53 5.02Q-68.11 3.62-68.11 1.57L-68.11 1.57L-68.11-11.90L-65.33-11.90L-65.33 1.50Q-65.33 4.25-65.96 6.13Q-66.58 8.01-67.68 9.17Q-68.77 10.34-70.27 10.84Q-71.77 11.35-73.51 11.35Z"/><path fill="#000000" opacity="1" d="M-51.41 10.93L-54.02 10.93L-54.02-11.90L-50.54-11.90L-46.16 0.28Q-45.74 1.47-45.34 2.67Q-44.94 3.87-44.52 5.05L-44.52 5.05L-44.38 5.05Q-43.96 3.87-43.60 2.67Q-43.23 1.47-42.82 0.28L-42.82 0.28L-38.50-11.90L-34.99-11.90L-34.99 10.93L-37.70 10.93L-37.70-1.63Q-37.70-3.16-37.56-5.01Q-37.42-6.85-37.32-8.38L-37.32-8.38L-37.46-8.38L-39.27-3.20L-43.58 8.63L-45.50 8.63L-49.81-3.20L-51.62-8.38L-51.76-8.38Q-51.65-6.85-51.53-5.01Q-51.41-3.16-51.41-1.63L-51.41-1.63L-51.41 10.93Z"/><path fill="#000000" opacity="1" d=""/><path fill="#000000" opacity="1" d="M-8.58 10.93L-11.47 10.93L-11.47-11.90L-4.96-11.90Q-3.04-11.90-1.46-11.55Q0.12-11.20 1.24-10.42Q2.35-9.63 2.98-8.35Q3.60-7.06 3.60-5.18L3.60-5.18Q3.60-3.37 2.99-2.05Q2.38-0.73 1.27 0.14Q0.16 1.01-1.39 1.45Q-2.94 1.88-4.82 1.88L-4.82 1.88L-8.58 1.88L-8.58 10.93ZM-8.58-9.56L-8.58-0.48L-5.17-0.48Q-2.17-0.48-0.73-1.61Q0.71-2.74 0.71-5.18L0.71-5.18Q0.71-7.65-0.80-8.61Q-2.31-9.56-5.31-9.56L-5.31-9.56L-8.58-9.56Z"/><path fill="#000000" opacity="1" d="M16.27 10.93L13.38 10.93L13.38-11.90L20.51-11.90Q22.25-11.90 23.73-11.56Q25.21-11.23 26.27-10.47Q27.33-9.70 27.92-8.49Q28.52-7.27 28.52-5.49L28.52-5.49Q28.52-2.81 27.12-1.21Q25.73 0.39 23.37 0.98L23.37 0.98L29.18 10.93L25.91 10.93L20.41 1.29L16.27 1.29L16.27 10.93ZM16.27-9.56L16.27-1.07L20.09-1.07Q22.77-1.07 24.20-2.17Q25.63-3.27 25.63-5.49L25.63-5.49Q25.63-7.75 24.20-8.66Q22.77-9.56 20.09-9.56L20.09-9.56L16.27-9.56Z"/><path fill="#000000" opacity="1" d="M46.75 11.35L46.75 11.35Q44.59 11.35 42.80 10.51Q41.01 9.68 39.72 8.13Q38.43 6.58 37.72 4.37Q37.01 2.16 37.01-0.59L37.01-0.59Q37.01-3.34 37.72-5.51Q38.43-7.69 39.72-9.20Q41.01-10.71 42.80-11.51Q44.59-12.31 46.75-12.31L46.75-12.31Q48.91-12.31 50.70-11.50Q52.49-10.68 53.79-9.16Q55.10-7.65 55.81-5.48Q56.53-3.30 56.53-0.59L56.53-0.59Q56.53 2.16 55.81 4.37Q55.10 6.58 53.79 8.13Q52.49 9.68 50.70 10.51Q48.91 11.35 46.75 11.35ZM46.75 8.81L46.75 8.81Q48.28 8.81 49.51 8.15Q50.75 7.49 51.64 6.25Q52.52 5.02 53.01 3.29Q53.50 1.57 53.50-0.59L53.50-0.59Q53.50-2.71 53.01-4.41Q52.52-6.12 51.64-7.30Q50.75-8.49 49.51-9.13Q48.28-9.77 46.75-9.77L46.75-9.77Q45.22-9.77 43.98-9.13Q42.75-8.49 41.86-7.30Q40.97-6.12 40.49-4.41Q40.00-2.71 40.00-0.59L40.00-0.59Q40.00 1.57 40.49 3.29Q40.97 5.02 41.86 6.25Q42.75 7.49 43.98 8.15Q45.22 8.81 46.75 8.81Z"/><path fill="#000000" opacity="1" d="M69.44 11.35L69.44 11.35Q65.16 11.35 63.14 7.69L63.14 7.69L65.22 6.23Q65.99 7.59 66.96 8.20Q67.94 8.81 69.16 8.81L69.16 8.81Q71.00 8.81 71.91 7.68Q72.81 6.55 72.81 3.94L72.81 3.94L72.81-11.90L75.73-11.90L75.73 4.22Q75.73 5.68 75.37 6.98Q75.00 8.29 74.25 9.26Q73.51 10.23 72.31 10.79Q71.11 11.35 69.44 11.35Z"/><path fill="#000000" opacity="1" d="M100.54 10.93L87.04 10.93L87.04-11.90L100.19-11.90L100.19-9.46L89.93-9.46L89.93-2.29L98.59-2.29L98.59 0.18L89.93 0.18L89.93 8.46L100.54 8.46L100.54 10.93Z"/><path fill="#000000" opacity="1" d="M119.16 11.35L119.16 11.35Q117.00 11.35 115.19 10.55Q113.38 9.75 112.04 8.23Q110.70 6.72 109.95 4.51Q109.21 2.30 109.21-0.48L109.21-0.48Q109.21-3.23 109.97-5.42Q110.74-7.62 112.09-9.15Q113.45-10.68 115.30-11.50Q117.14-12.31 119.33-12.31L119.33-12.31Q121.42-12.31 123.00-11.46Q124.59-10.61 125.60-9.49L125.60-9.49L124.03-7.62Q123.13-8.59 121.98-9.18Q120.83-9.77 119.37-9.77L119.37-9.77Q117.73-9.77 116.41-9.13Q115.09-8.49 114.15-7.28Q113.21-6.08 112.70-4.38Q112.20-2.67 112.20-0.55L112.20-0.55Q112.20 1.61 112.70 3.33Q113.21 5.05 114.11 6.27Q115.02 7.49 116.32 8.15Q117.63 8.81 119.26 8.81L119.26 8.81Q120.93 8.81 122.19 8.13Q123.44 7.45 124.55 6.23L124.55 6.23L126.15 8.04Q124.80 9.61 123.09 10.48Q121.39 11.35 119.16 11.35Z"/><path fill="#000000" opacity="1" d="M142.58 10.93L139.65 10.93L139.65-9.46L132.76-9.46L132.76-11.90L149.47-11.90L149.47-9.46L142.58-9.46L142.58 10.93Z"/></g><g transform="matrix(2.0876499999999996 0 0 2.0876499999999996 251.09242602321942 203.85179999999997)"  >
<path style="stroke: none; stroke-width: 0; stroke-dasharray: none; stroke-linecap: butt; stroke-dashoffset: 0; stroke-linejoin: miter; stroke-miterlimit: 4; fill: rgb(41,41,41); fill-rule: evenodd; opacity: 1;"  transform=" translate(-16, -16)" d="M 7 4 H 25 a 1 1 0 0 1 1 1 V 23 l -5 5 H 11 L 6 23 V 5 A 1 1 0 0 1 7 4 Z M 24 6 V 9 H 8 V 6 H 24 Z M 9 13 V 11 H 8 v 2 H 9 Z m 0 3 V 14 H 8 v 2 H 9 Z m 0 3 V 17 H 8 v 2 H 9 Z m 13 5 V 23 h 1 v 1 H 22 Z m 2 -11 V 11 H 23 v 2 h 1 Z m 0 3 V 14 H 23 v 2 h 1 Z m 0 3 V 17 H 23 v 2 h 1 Z M 9 22 V 20 H 8 v 2 H 9 Z m 15 0 V 20 H 23 v 2 h 1 Z m -3 3 V 24 h 1 v 1 H 21 Z M 10 24 V 23 H 9 v 1 h 1 Z m 1 1 V 24 H 10 v 1 h 1 Z m 1 1 h 2 V 25 H 12 v 1 Z m 3 0 h 2 V 25 H 15 v 1 Z m 3 0 h 2 V 25 H 18 v 1 Z" stroke-linecap="round" />
</g>
</svg>